{"title":"Commando 2013 Untouched CAM (ICTV) - Hindi","uid":8366743,"size":666044416,"categoryP":"video","categoryS":"movies","magnet":"?xt=urn:btih:cd4e7a1a975714eca228f6354880cae88aa0b3e4&amp;dn=Commando+2013+Untouched+CAM+%28ICTV%29+-+Hindi&amp;tr=udp%3A%2F%2Ftracker.openbittorrent.com%3A80&amp;tr=udp%3A%2F%2Fopen.demonii.com%3A1337&amp;tr=udp%3A%2F%2Ftracker.coppersurfer.tk%3A6969&amp;tr=udp%3A%2F%2Fexodus.desync.com%3A6969","seeders":1,"leechers":0,"uploader":"SJonam","files":1,"time":1365789966,"description":" &lt;a href=&quot;http://desibbrg.org/images/66952052392581364616.gif&quot; rel=&quot;nofollow&quot; target=&quot;_NEW&quot;&gt;http://desibbrg.org/images/66952052392581364616.gif&lt;/a&gt; &lt;a href=&quot;\nhttp://desibbrg.org/images/31537019500998195262.jpg&quot; rel=&quot;nofollow&quot; target=&quot;_NEW&quot;&gt;\nhttp://desibbrg.org/images/31537019500998195262.jpg&lt;/a&gt; &lt;a href=&quot;\nhttp://desibbrg.org/images/86547470908671533820.png&quot; rel=&quot;nofollow&quot; target=&quot;_NEW&quot;&gt;\nhttp://desibbrg.org/images/86547470908671533820.png&lt;/a&gt; &lt;a href=&quot;\nhttp://desibbrg.org/images/97787390350612663319.png&quot; rel=&quot;nofollow&quot; target=&quot;_NEW&quot;&gt;\nhttp://desibbrg.org/images/97787390350612663319.png&lt;/a&gt; &lt;a href=&quot;\nhttp://desibbrg.org/images/71165713789769896730.png&quot; rel=&quot;nofollow&quot; target=&quot;_NEW&quot;&gt;\nhttp://desibbrg.org/images/71165713789769896730.png&lt;/a&gt; &lt;a href=&quot;\nhttp://desibbrg.org/images/05151132406583786299.png&quot; rel=&quot;nofollow&quot; target=&quot;_NEW&quot;&gt;\nhttp://desibbrg.org/images/05151132406583786299.png&lt;/a&gt;\n\nMedia Info - \nVideo\nID : 224 (0xE0)\nFormat : MPEG Video\nFormat version : Version 2\nFormat settings, BVOP : Yes\nFormat settings, Matrix : Custom\nFormat settings, GOP : Variable\nDuration : 1h 47mn\nBit rate : 743 Kbps\nMaximum bit rate : 1 150 Kbps\nWidth : 352 pixels\nHeight : 288 pixels\nDisplay aspect ratio : 1.222\nFrame rate : 25.000 fps\nStandard : PAL\nColor space : YUV\nBit depth : 8 bits\nScan type : Progressive\nCompression mode : Lossy\nBits/(Pixel*Frame) : 0.293\nStream size : 573 MiB (90%)\n\nAudio\nID : 192 (0xC0)\nFormat : MPEG Audio\nFormat version : Version 1\nFormat profile : Layer 2\nDuration : 1h 47mn\nBit rate mode : Constant\nBit rate : 64.0 Kbps\nChannel(s) : 2 channels\nSampling rate : 48.0 KHz\nCompression mode : Lossy\nStream size : 49.3 MiB (8%)\n\nSharer : TJ_DA_King\n\nSeeding 24x7... Extreme Seeding...\n\n\nEnjoy!\n","torrent":{"xt":"urn:btih:cd4e7a1a975714eca228f6354880cae88aa0b3e4","amp;dn":"Commando+2013+Untouched+CAM+%28ICTV%29+-+Hindi","amp;tr":["udp%3A%2F%2Ftracker.openbittorrent.com%3A80","udp%3A%2F%2Fopen.demonii.com%3A1337","udp%3A%2F%2Ftracker.coppersurfer.tk%3A6969","udp%3A%2F%2Fexodus.desync.com%3A6969"],"infoHash":"cd4e7a1a975714eca228f6354880cae88aa0b3e4","infoHashBuffer":{"type":"Buffer","data":[205,78,122,26,151,87,20,236,162,40,246,53,72,128,202,232,138,160,179,228]},"announce":[],"urlList":[]}}